<svg xmlns="http://www.w3.org/2000/svg" xmlns:xlink="http://www.w3.org/1999/xlink" width="414" zoomAndPan="magnify" viewBox="0 0 310.5 185.999996" height="248" preserveAspectRatio="xMidYMid meet" version="1.0"><defs><clipPath id="1ad4584cd9"><path d="M 0 0.148438 L 310 0.148438 L 310 185.847656 L 0 185.847656 Z M 0 0.148438 " clip-rule="nonzero"/></clipPath><clipPath id="1463b3c409"><path d="M 0.00390625 10.953125 L 309.339844 10.953125 L 309.339844 185.269531 L 0.00390625 185.269531 Z M 0.00390625 10.953125 " clip-rule="nonzero"/></clipPath><clipPath id="7e863ff825"><path d="M 21 10.953125 L 288 10.953125 L 288 167 L 21 167 Z M 21 10.953125 " clip-rule="nonzero"/></clipPath><clipPath id="eb2d80f2b5"><path d="M 0 0.148438 L 309.332031 0.148438 L 309.332031 174.464844 L 0 174.464844 Z M 0 0.148438 " clip-rule="nonzero"/></clipPath><clipPath id="ac131ebcc6"><path d="M 21 21 L 288 21 L 288 174.464844 L 21 174.464844 Z M 21 21 " clip-rule="nonzero"/></clipPath><clipPath id="6c7868d35c"><rect x="0" width="310" y="0" height="186"/></clipPath></defs><g clip-path="url(#1ad4584cd9)"><g transform="matrix(1, 0, 0, 1, 0, -0.000000000000027034)"><g clip-path="url(#6c7868d35c)"><g clip-path="url(#1463b3c409)"><path fill="#1b1cb5" d="M 0.00390625 188.257812 L 309.339844 188.257812 L 309.339844 -121.074219 L 0.00390625 -121.074219 Z M 293.871094 -105.609375 L 293.871094 172.792969 L 15.472656 172.792969 L 15.472656 -105.609375 Z M 293.871094 -105.609375 " fill-opacity="1" fill-rule="nonzero"/></g><path fill="#1b1cb5" d="M 274.28125 150.109375 C 274.691406 150.109375 275.085938 150.1875 275.464844 150.34375 C 275.84375 150.5 276.175781 150.722656 276.46875 151.011719 C 276.757812 151.304688 276.980469 151.636719 277.136719 152.015625 C 277.292969 152.394531 277.375 152.789062 277.375 153.199219 C 277.375 153.609375 277.292969 154.003906 277.136719 154.382812 C 276.980469 154.761719 276.757812 155.097656 276.46875 155.386719 C 276.175781 155.679688 275.84375 155.902344 275.464844 156.058594 C 275.085938 156.214844 274.691406 156.292969 274.28125 156.292969 C 273.871094 156.292969 273.476562 156.214844 273.097656 156.058594 C 272.71875 155.902344 272.382812 155.679688 272.09375 155.386719 C 271.800781 155.097656 271.578125 154.761719 271.421875 154.382812 C 271.265625 154.003906 271.1875 153.609375 271.1875 153.199219 C 271.1875 152.789062 271.265625 152.394531 271.421875 152.015625 C 271.578125 151.636719 271.800781 151.304688 272.09375 151.011719 C 272.382812 150.722656 272.71875 150.5 273.097656 150.34375 C 273.476562 150.1875 273.871094 150.109375 274.28125 150.109375 Z M 274.28125 150.109375 " fill-opacity="1" fill-rule="nonzero"/><path fill="#1b1cb5" d="M 37.25 151.015625 C 36.042969 149.804688 34.082031 149.804688 32.875 151.015625 C 31.667969 152.222656 31.667969 154.179688 32.875 155.386719 C 34.082031 156.597656 36.042969 156.597656 37.25 155.386719 C 38.457031 154.179688 38.457031 152.222656 37.25 151.015625 Z M 37.25 151.015625 " fill-opacity="1" fill-rule="nonzero"/><g clip-path="url(#7e863ff825)"><path fill="#1b1cb5" d="M 21.65625 166.605469 L 287.683594 166.605469 L 287.683594 -99.421875 L 21.65625 -99.421875 Z M 42.488281 -96.328125 C 45.398438 -90.140625 44.882812 -83.808594 41.078125 -80.003906 C 37.285156 -76.210938 30.933594 -75.6875 24.75 -78.589844 L 24.75 -96.328125 Z M 45.863281 -96.328125 L 263.484375 -96.328125 C 260.695312 -89.359375 261.625 -82.265625 266.078125 -77.816406 C 270.542969 -73.347656 277.617188 -72.425781 284.589844 -75.222656 L 284.589844 142.40625 C 277.621094 139.617188 270.53125 140.546875 266.078125 145 C 261.613281 149.464844 260.6875 156.535156 263.484375 163.511719 L 45.863281 163.511719 C 46.914062 160.878906 47.445312 158.226562 47.445312 155.707031 C 47.445312 151.558594 46.035156 147.769531 43.265625 145 C 38.796875 140.53125 31.722656 139.609375 24.75 142.40625 L 24.75 -75.222656 C 31.722656 -72.433594 38.8125 -73.363281 43.265625 -77.816406 C 46.039062 -80.589844 47.453125 -84.375 47.453125 -88.515625 C 47.453125 -91.035156 46.921875 -93.691406 45.863281 -96.328125 Z M 24.75 145.773438 C 30.941406 142.863281 37.273438 143.382812 41.078125 147.1875 C 44.867188 150.976562 45.390625 157.324219 42.488281 163.511719 L 24.75 163.511719 Z M 266.851562 163.511719 C 263.941406 157.324219 264.460938 150.988281 268.265625 147.1875 C 272.058594 143.394531 278.40625 142.871094 284.589844 145.773438 L 284.589844 163.511719 Z M 284.589844 -78.589844 C 278.402344 -75.679688 272.070312 -76.199219 268.265625 -80 C 264.472656 -83.792969 263.949219 -90.144531 266.855469 -96.328125 L 284.589844 -96.328125 Z M 284.589844 -78.589844 " fill-opacity="1" fill-rule="nonzero"/></g><path fill="#1b1cb5" d="M 83.125 148.585938 C 86.761719 146.273438 88.621094 141.308594 85.84375 137.335938 C 84.546875 135.496094 82.121094 133.722656 78.023438 133.21875 C 75.300781 132.898438 72.140625 133.230469 69.089844 134.050781 C 66.027344 134.867188 63.089844 136.160156 60.636719 137.558594 C 58.175781 138.953125 56.199219 140.464844 54.847656 141.582031 C 53.503906 142.730469 52.757812 143.476562 52.757812 143.476562 C 52.757812 143.476562 53.785156 143.734375 55.453125 144.15625 C 57.109375 144.597656 59.351562 145.199219 61.765625 145.949219 C 64.183594 146.691406 66.757812 147.558594 69.199219 148.335938 C 71.644531 149.109375 73.964844 149.789062 76.039062 150.035156 C 79.140625 150.414062 81.382812 149.703125 83.125 148.585938 Z M 83.125 148.585938 " fill-opacity="1" fill-rule="nonzero"/><path fill="#1b1cb5" d="M 50.902344 102.410156 C 46.921875 99.648438 41.960938 101.527344 39.660156 105.164062 C 38.550781 106.910156 37.84375 109.152344 38.234375 112.25 C 38.484375 114.328125 39.171875 116.644531 39.953125 119.089844 C 40.742188 121.53125 41.617188 124.101562 42.367188 126.519531 C 43.125 128.933594 43.734375 131.179688 44.179688 132.832031 C 44.605469 134.503906 44.867188 135.527344 44.867188 135.527344 C 44.867188 135.527344 45.613281 134.78125 46.757812 133.429688 C 47.871094 132.074219 49.375 130.089844 50.761719 127.621094 C 52.152344 125.160156 53.4375 122.214844 54.242188 119.152344 C 55.050781 116.09375 55.375 112.929688 55.042969 110.210938 C 54.527344 106.113281 52.742188 103.699219 50.902344 102.410156 Z M 50.902344 102.410156 " fill-opacity="1" fill-rule="nonzero"/><path fill="#1b1cb5" d="M 80.757812 115.617188 C 80.816406 111.097656 77.082031 107.375 72.558594 107.449219 C 70.425781 107.480469 67.933594 108.296875 65.425781 110.8125 C 58.738281 117.523438 54.472656 133.796875 54.472656 133.796875 C 54.472656 133.796875 70.730469 129.476562 77.417969 122.765625 C 79.925781 120.25 80.730469 117.753906 80.757812 115.617188 Z M 80.757812 115.617188 " fill-opacity="1" fill-rule="nonzero"/><path fill="#1b1cb5" d="M 269.664062 105.136719 C 267.355469 101.503906 262.386719 99.640625 258.414062 102.421875 C 256.578125 103.71875 254.800781 106.140625 254.296875 110.238281 C 253.976562 112.960938 254.308594 116.121094 255.132812 119.175781 C 255.945312 122.234375 257.242188 125.175781 258.636719 127.628906 C 260.03125 130.089844 261.542969 132.066406 262.660156 133.414062 C 263.808594 134.757812 264.554688 135.503906 264.554688 135.503906 C 264.554688 135.503906 264.816406 134.476562 265.238281 132.808594 C 265.675781 131.15625 266.277344 128.910156 267.027344 126.496094 C 267.773438 124.078125 268.640625 121.503906 269.417969 119.066406 C 270.191406 116.617188 270.871094 114.300781 271.113281 112.222656 C 271.496094 109.121094 270.78125 106.882812 269.664062 105.136719 Z M 269.664062 105.136719 " fill-opacity="1" fill-rule="nonzero"/><path fill="#1b1cb5" d="M 223.488281 137.359375 C 220.726562 141.339844 222.605469 146.300781 226.242188 148.601562 C 227.988281 149.714844 230.230469 150.417969 233.332031 150.027344 C 235.40625 149.777344 237.722656 149.089844 240.167969 148.308594 C 242.609375 147.523438 245.183594 146.648438 247.601562 145.894531 C 250.015625 145.136719 252.257812 144.53125 253.914062 144.085938 C 255.582031 143.65625 256.609375 143.394531 256.609375 143.394531 C 256.609375 143.394531 255.859375 142.652344 254.511719 141.507812 C 253.152344 140.394531 251.171875 138.886719 248.703125 137.5 C 246.242188 136.113281 243.296875 134.824219 240.230469 134.023438 C 237.175781 133.210938 234.011719 132.886719 231.289062 133.21875 C 227.191406 133.734375 224.777344 135.519531 223.488281 137.359375 Z M 223.488281 137.359375 " fill-opacity="1" fill-rule="nonzero"/><path fill="#1b1cb5" d="M 236.699219 107.503906 C 232.175781 107.445312 228.453125 111.183594 228.527344 115.703125 C 228.5625 117.839844 229.375 120.332031 231.890625 122.839844 C 238.601562 129.527344 254.875 133.792969 254.875 133.792969 C 254.875 133.792969 250.554688 117.535156 243.84375 110.847656 C 241.328125 108.339844 238.832031 107.53125 236.699219 107.503906 Z M 236.699219 107.503906 " fill-opacity="1" fill-rule="nonzero"/><g clip-path="url(#eb2d80f2b5)"><path fill="#1b1cb5" d="M 0 0.148438 L 0 309.484375 L 309.332031 309.484375 L 309.332031 0.148438 Z M 293.867188 294.015625 L 15.464844 294.015625 L 15.464844 15.617188 L 293.867188 15.617188 Z M 293.867188 294.015625 " fill-opacity="1" fill-rule="nonzero"/></g><path fill="#1b1cb5" d="M 37.246094 37.394531 C 38.453125 36.1875 38.453125 34.226562 37.246094 33.019531 C 36.035156 31.8125 34.078125 31.8125 32.871094 33.019531 C 31.664062 34.226562 31.664062 36.1875 32.871094 37.394531 C 34.078125 38.601562 36.035156 38.601562 37.246094 37.394531 Z M 37.246094 37.394531 " fill-opacity="1" fill-rule="nonzero"/><path fill="#1b1cb5" d="M 276.464844 37.394531 C 277.671875 36.1875 277.671875 34.226562 276.464844 33.019531 C 275.253906 31.8125 273.296875 31.8125 272.089844 33.019531 C 270.878906 34.226562 270.878906 36.1875 272.089844 37.394531 C 273.296875 38.601562 275.253906 38.601562 276.464844 37.394531 Z M 276.464844 37.394531 " fill-opacity="1" fill-rule="nonzero"/><g clip-path="url(#ac131ebcc6)"><path fill="#1b1cb5" d="M 21.652344 21.800781 L 21.652344 287.828125 L 287.679688 287.828125 L 287.679688 21.800781 Z M 284.585938 42.632812 C 278.398438 45.542969 272.066406 45.027344 268.261719 41.222656 C 264.46875 37.429688 263.945312 31.082031 266.851562 24.894531 L 284.585938 24.894531 Z M 284.585938 46.007812 L 284.585938 263.628906 C 277.617188 260.839844 270.527344 261.769531 266.074219 266.222656 C 261.609375 270.6875 260.683594 277.761719 263.480469 284.734375 L 45.851562 284.734375 C 48.644531 277.765625 47.710938 270.675781 43.261719 266.222656 C 38.796875 261.757812 31.722656 260.832031 24.746094 263.628906 L 24.746094 46.007812 C 27.382812 47.0625 30.03125 47.589844 32.550781 47.589844 C 36.699219 47.589844 40.492188 46.179688 43.257812 43.410156 C 47.726562 38.945312 48.648438 31.871094 45.851562 24.894531 L 263.480469 24.894531 C 260.691406 31.867188 261.621094 38.957031 266.074219 43.410156 C 268.851562 46.183594 272.632812 47.597656 276.773438 47.597656 C 279.292969 47.597656 281.949219 47.066406 284.585938 46.007812 Z M 42.484375 24.894531 C 45.394531 31.085938 44.878906 37.417969 41.074219 41.222656 C 37.28125 45.011719 30.933594 45.535156 24.746094 42.632812 L 24.746094 24.894531 Z M 24.746094 266.996094 C 30.9375 264.085938 37.269531 264.605469 41.074219 268.410156 C 44.863281 272.203125 45.386719 278.550781 42.484375 284.734375 L 24.746094 284.734375 Z M 266.847656 284.734375 C 263.941406 278.546875 264.457031 272.214844 268.261719 268.410156 C 272.054688 264.617188 278.402344 264.09375 284.585938 267 L 284.585938 284.734375 Z M 266.847656 284.734375 " fill-opacity="1" fill-rule="nonzero"/></g><path fill="#1b1cb5" d="M 39.671875 83.273438 C 41.984375 86.90625 46.953125 88.765625 50.925781 85.988281 C 52.761719 84.691406 54.539062 82.269531 55.039062 78.167969 C 55.363281 75.445312 55.027344 72.285156 54.207031 69.234375 C 53.394531 66.171875 52.097656 63.234375 50.699219 60.78125 C 49.308594 58.320312 47.792969 56.34375 46.675781 54.992188 C 45.527344 53.648438 44.78125 52.902344 44.78125 52.902344 C 44.78125 52.902344 44.523438 53.929688 44.101562 55.597656 C 43.660156 57.253906 43.058594 59.496094 42.3125 61.910156 C 41.566406 64.328125 40.699219 66.902344 39.921875 69.34375 C 39.148438 71.789062 38.46875 74.109375 38.226562 76.183594 C 37.84375 79.285156 38.554688 81.527344 39.671875 83.273438 Z M 39.671875 83.273438 " fill-opacity="1" fill-rule="nonzero"/><path fill="#1b1cb5" d="M 85.851562 51.046875 C 88.609375 47.066406 86.734375 42.105469 83.09375 39.804688 C 81.347656 38.695312 79.109375 37.988281 76.007812 38.378906 C 73.929688 38.632812 71.613281 39.316406 69.167969 40.097656 C 66.730469 40.886719 64.15625 41.761719 61.738281 42.511719 C 59.324219 43.269531 57.082031 43.878906 55.425781 44.324219 C 53.757812 44.75 52.730469 45.011719 52.730469 45.011719 C 52.730469 45.011719 53.480469 45.757812 54.828125 46.902344 C 56.183594 48.015625 58.167969 49.519531 60.636719 50.90625 C 63.097656 52.296875 66.042969 53.582031 69.105469 54.386719 C 72.164062 55.195312 75.328125 55.519531 78.050781 55.1875 C 82.144531 54.671875 84.558594 52.886719 85.851562 51.046875 Z M 85.851562 51.046875 " fill-opacity="1" fill-rule="nonzero"/><path fill="#1b1cb5" d="M 72.640625 80.902344 C 77.160156 80.960938 80.882812 77.226562 80.8125 72.703125 C 80.777344 70.570312 79.960938 68.078125 77.445312 65.570312 C 70.734375 58.882812 54.464844 54.617188 54.464844 54.617188 C 54.464844 54.617188 58.785156 70.875 65.492188 77.5625 C 68.011719 80.070312 70.503906 80.875 72.640625 80.902344 Z M 72.640625 80.902344 " fill-opacity="1" fill-rule="nonzero"/><path fill="#1b1cb5" d="M 226.210938 39.824219 C 222.578125 42.132812 220.71875 47.101562 223.496094 51.074219 C 224.792969 52.910156 227.214844 54.6875 231.3125 55.191406 C 234.035156 55.511719 237.199219 55.179688 240.25 54.355469 C 243.308594 53.542969 246.25 52.246094 248.703125 50.851562 C 251.164062 49.457031 253.140625 47.945312 254.488281 46.828125 C 255.835938 45.679688 256.578125 44.933594 256.578125 44.933594 C 256.578125 44.933594 255.554688 44.671875 253.886719 44.25 C 252.230469 43.8125 249.984375 43.210938 247.570312 42.460938 C 245.152344 41.714844 242.582031 40.847656 240.140625 40.070312 C 237.691406 39.296875 235.375 38.617188 233.296875 38.375 C 230.195312 37.992188 227.957031 38.707031 226.210938 39.824219 Z M 226.210938 39.824219 " fill-opacity="1" fill-rule="nonzero"/><path fill="#1b1cb5" d="M 258.433594 86 C 262.417969 88.761719 267.378906 86.882812 269.675781 83.246094 C 270.789062 81.5 271.496094 79.257812 271.101562 76.15625 C 270.851562 74.082031 270.164062 71.765625 269.382812 69.316406 C 268.597656 66.878906 267.722656 64.304688 266.96875 61.886719 C 266.210938 59.472656 265.605469 57.230469 265.160156 55.574219 C 264.734375 53.90625 264.46875 52.878906 264.46875 52.878906 C 264.46875 52.878906 263.726562 53.628906 262.582031 54.976562 C 261.46875 56.335938 259.960938 58.316406 258.574219 60.785156 C 257.1875 63.246094 255.902344 66.191406 255.097656 69.257812 C 254.285156 72.3125 253.964844 75.476562 254.292969 78.199219 C 254.808594 82.296875 256.597656 84.710938 258.4375 86 Z M 258.433594 86 " fill-opacity="1" fill-rule="nonzero"/><path fill="#1b1cb5" d="M 228.582031 72.789062 C 228.523438 77.3125 232.257812 81.035156 236.777344 80.960938 C 238.914062 80.925781 241.40625 80.113281 243.914062 77.597656 C 250.601562 70.886719 254.867188 54.613281 254.867188 54.613281 C 254.867188 54.613281 238.609375 58.933594 231.921875 65.644531 C 229.414062 68.160156 228.609375 70.65625 228.582031 72.789062 Z M 228.582031 72.789062 " fill-opacity="1" fill-rule="nonzero"/></g></g></g></svg>